<?xml version="1.0" encoding="UTF-8" standalone="no"?><!DOCTYPE svg PUBLIC "-//W3C//DTD SVG 1.1//EN" "http://www.w3.org/Graphics/SVG/1.1/DTD/svg11.dtd"><svg width="100%" height="100%" viewBox="0 0 1467 2134" version="1.1" xmlns="http://www.w3.org/2000/svg" xmlns:xlink="http://www.w3.org/1999/xlink" xml:space="preserve" xmlns:serif="http://www.serif.com/" style="fill-rule:evenodd;clip-rule:evenodd;stroke-linejoin:round;stroke-miterlimit:2;"><path d="M725.874,1129.23c-83.718,-0 -151.812,64.989 -151.812,144.89c0,13.342 11.323,24.148 25.302,24.148c13.98,0 25.302,-10.806 25.302,-24.148c0,-53.278 45.417,-96.594 101.208,-96.594c13.98,0 25.302,-10.806 25.302,-24.148c0,-13.342 -11.322,-24.148 -25.302,-24.148Zm-126.415,572.27c0,4.754 1.471,9.388 4.238,13.342l38.76,55.602c4.696,6.731 12.603,10.776 21.064,10.776l124.691,-0c8.476,-0 16.383,-4.045 21.064,-10.776l38.759,-55.602c2.752,-3.954 4.223,-8.603 4.238,-13.342l0.079,-65.17l-252.956,-0l0.063,65.17Zm126.415,-693.012c-161.743,-0 -278.321,125.224 -278.321,265.632c-0,66.966 26.013,128.061 68.884,174.743c26.314,28.661 67.588,88.745 82.896,139.095l-0,0.09l75.906,0l-0,-0.181c-0.016,-7.199 -1.139,-14.353 -3.4,-21.235c-8.84,-26.88 -36.087,-97.756 -98.314,-165.522c-32.482,-35.362 -49.845,-80.218 -49.988,-126.99c-0.316,-111.143 94.361,-193.187 202.337,-193.187c111.614,-0 202.416,86.662 202.416,193.187c-0,46.742 -17.775,91.839 -50.05,126.99c-61.848,67.328 -89.222,138.053 -98.204,165.205c-2.318,6.981 -3.502,14.259 -3.51,21.582l-0,0.151l75.906,0l-0,-0.075c15.307,-50.365 56.581,-110.449 82.895,-139.095c42.855,-46.697 68.869,-107.792 68.869,-174.758c-0,-146.702 -124.612,-265.632 -278.322,-265.632Z" style="fill-rule:nonzero;"/><path d="M1188.49,974.497c-7.426,-10.469 -21.954,-12.939 -32.423,-5.513l-132.44,93.942c-10.469,7.426 -12.94,21.954 -5.514,32.424c7.426,10.469 21.955,12.939 32.424,5.513l132.439,-93.942c10.469,-7.426 12.94,-21.954 5.514,-32.424Z" style="fill:#0f0404;"/><path d="M1260.33,1254.04c-0.621,-12.563 -11.325,-22.258 -23.888,-21.636l-159.639,7.898c-12.562,0.621 -22.257,11.325 -21.635,23.888c0.621,12.562 11.325,22.257 23.888,21.636l159.638,-7.898c12.563,-0.622 22.258,-11.326 21.636,-23.888Z" style="fill:#0f0404;"/><path d="M1221.33,1510.99c4.861,-12.352 -1.22,-26.327 -13.571,-31.188l-152.852,-60.162c-12.352,-4.862 -26.327,1.219 -31.188,13.571c-4.862,12.351 1.219,26.326 13.571,31.188l152.852,60.162c12.352,4.861 26.326,-1.22 31.188,-13.571Z" style="fill:#0f0404;"/><path d="M429.974,1097.37c6.018,-12.98 0.367,-28.404 -12.613,-34.422l-153.242,-71.054c-12.98,-6.018 -28.404,-0.367 -34.422,12.613c-6.018,12.98 -0.367,28.403 12.613,34.422l153.242,71.054c12.98,6.018 28.404,0.367 34.422,-12.613Z" style="fill:#0f0404;"/><path d="M392.103,1279.67c0.564,-14.691 -10.907,-27.076 -25.598,-27.64l-183.394,-7.033c-14.692,-0.564 -27.077,10.906 -27.64,25.598c-0.563,14.691 10.907,27.077 25.598,27.64l183.394,7.033c14.692,0.564 27.077,-10.906 27.64,-25.598Z" style="fill:#0f0404;"/><path d="M414.404,1444.3c-6.221,-14.216 -22.814,-20.707 -37.031,-14.486l-156.053,68.292c-14.217,6.221 -20.708,22.814 -14.486,37.031c6.221,14.216 22.814,20.707 37.031,14.486l156.053,-68.291c14.217,-6.222 20.708,-22.815 14.486,-37.032Z" style="fill:#0f0404;"/></svg>